<svg opacity=".42" xmlns="http://www.w3.org/2000/svg" width="900" height="900" viewBox="0 0 900 900" fill="none" stroke-width="2.2" stroke-linecap="round" stroke-linejoin="round" xmlns:c2pa="http://c2pa.org/manifest"><metadata><c2pa:manifest>AAAWgmp1bWIAAAAeanVtZGMycGEAEQAQgAAAqgA4m3EDYzJwYQAAABZcanVtYgAAAEdqdW1kYzJtYQARABCAAACqADibcQN1cm46YzJwYTpkMTQyZWJhZC1lYjVhLTQ3ZDktODAyYy05M2JhNGZhNzc4YWQAAAADl2p1bWIAAAApanVtZGMyYXMAEQAQgAAAqgA4m3EDYzJwYS5hc3NlcnRpb25zAAAAALxqdW1iAAAARGp1bWRjYm9yABEAEIAAAKoAOJtxE2MycGEuaW5ncmVkaWVudC52MwAAAAAYYzJzaHiJZileuPVkdWCVFYpFi6AAAABwY2JvcqNpZGM6Zm9ybWF0bWltYWdlL3N2Zyt4bWxqaW5zdGFuY2VJRHgseG1wOmlpZDo0YjFlY2RjYS0zNTk1LTQ1NzUtYjg2My01Yjc1NTkxYmNlNzdscmVsYXRpb25zaGlwaHBhcmVudE9mAAAB4mp1bWIAAABBanVtZGNib3IAEQAQgAAAqgA4m3ETYzJwYS5hY3Rpb25zLnYyAAAAABhjMnNol9RHZE6FmZCASg9xVk7KegAAAZljYm9yomdhY3Rpb25zgqJmYWN0aW9ua2MycGEub3BlbmVkanBhcmFtZXRlcnOha2luZ3JlZGllbnRzgaJjdXJseC1zZWxmI2p1bWJmPWMycGEuYXNzZXJ0aW9ucy9jMnBhLmluZ3JlZGllbnQudjNkaGFzaFggfdm0KjmTsLy3mg44H+u0p47+m9uwc5jZU7gIYEqP60KkZmFjdGlvbngdY29tLmFudGhyb3BpYy5jbGF1ZGUucHJvdmlkZWRqcGFyYW1ldGVyc6F4H2NvbS5hbnRocm9waWMub3JpZ2luLWNvbmZpZGVuY2VndW5rbm93bmtkZXNjcmlwdGlvbnhmQ2xhdWRlIHByb3ZpZGVkIHRoaXMgZmlsZSBhdCB0aGUgcmVxdWVzdCBvZiBhIHVzZXIgYW5kIG1heSBoYXZlIGNyZWF0ZWQgb3IgbW9kaWZpZWQgdGhlIGZpbGUgY29udGVudHMubXNvZnR3YXJlQWdlbnShZG5hbWVmQ2xhdWRlcmFsbEFjdGlvbnNJbmNsdWRlZPUAAADIanVtYgAAAEBqdW1kY2JvcgARABCAAACqADibcRNjMnBhLmhhc2guZGF0YQAAAAAYYzJzaDJ+8J4IZ4gCzdluDlMOcjoAAACAY2JvcqVjYWxnZnNoYTI1NmNwYWRNAAAAAAAAAAAAAAAAAGRoYXNoWCBxNErLTfq1y6gKACsTraM/PE0vlf0Utm649c85NTkmZ2RuYW1lbmp1bWJmIG1hbmlmZXN0amV4Y2x1c2lvbnOBomVzdGFydBjyZmxlbmd0aBkeBAAAAj5qdW1iAAAAJ2p1bWRjMmNsABEAEIAAAKoAOJtxA2MycGEuY2xhaW0udjIAAAACD2Nib3KlY2FsZ2ZzaGEyNTZpc2lnbmF0dXJleE1zZWxmI2p1bWJmPS9jMnBhL3VybjpjMnBhOmQxNDJlYmFkLWViNWEtNDdkOS04MDJjLTkzYmE0ZmE3NzhhZC9jMnBhLnNpZ25hdHVyZWppbnN0YW5jZUlEeCx4bXA6aWlkOjk4ZTkxNDA5LTcxNmQtNDE0NS05NmU1LWM5MTIyMGQ0YzM0ZXJjcmVhdGVkX2Fzc2VydGlvbnODomN1cmx4LXNlbGYjanVtYmY9YzJwYS5hc3NlcnRpb25zL2MycGEuaW5ncmVkaWVudC52M2RoYXNoWCB92bQqOZOwvLeaDjgf67Snjv6b27BzmNlTuAhgSo/rQqJjdXJseCpzZWxmI2p1bWJmPWMycGEuYXNzZXJ0aW9ucy9jMnBhLmFjdGlvbnMudjJkaGFzaFggHT1YhfjWVri1PHAIsKxiSjAYaZfZzR9YN2QpSxrUKkOiY3VybHgpc2VsZiNqdW1iZj1jMnBhLmFzc2VydGlvbnMvYzJwYS5oYXNoLmRhdGFkaGFzaFgguTc1c/YeS8/Z22U8fVD4zvvrJXxGdFJiryUGc2QRQdF0Y2xhaW1fZ2VuZXJhdG9yX2luZm+jZG5hbWVvQW50aHJvcGljIEZpbGVzZ3ZlcnNpb25lMS4wLjBrc3BlY1ZlcnNpb25lMi40LjAAABA4anVtYgAAAChqdW1kYzJjcwARABCAAACqADibcQNjMnBhLnNpZ25hdHVyZQAAABAIY2JvctKEWQISogEmGCFZAgowggIGMIIBjaADAgECAhRA5aAK7sI50L64g/oGQgU9Z1UTADAKBggqhkjOPQQDAzBJMRcwFQYDVQQKEw5BbnRocm9waWMsIFBCQzEuMCwGA1UEAxMlQW50aHJvcGljIENvbnRlbnQgQ3JlZGVudGlhbHMgUm9vdCBDQTAeFw0yNjA4MDcxODQzNTZaFw0yODA4MDYxOTQzNTZaMEQxFzAVBgNVBAoTDkFudGhyb3BpYywgUEJDMSkwJwYDVQQDEyBBbnRocm9waWMgQ2xhdWRlIENvbnRlbnQgU2lnbmluZzBZMBMGByqGSM49AgEGCCqGSM49AwEHA0IABJh6CmvLUBgFFNU0vUKlOVtE6djd17L5SuwX0LemFisBM3dkd/3cyjxFA3Qo5S46fX0/ihY0VZ7mfb9KF703t5OjWDBWMA4GA1UdDwEB/wQEAwIHgDAVBgNVHSUEDjAMBgorBgEEAYPoXgIBMAwGA1UdEwEB/wQCMAAwHwYDVR0jBBgwFoAUzlHiBIFOZFsj+OPEz5o+nMHXXMIwCgYIKoZIzj0EAwMDZwAwZAIwMXMdFJ4BetLLVY7ORuE9noqbbAZOZn/aArXyTwFAZfKrPzxF2vPoJNf1+UCdg1XGAjBwX1zd9WGqYkqmL5SFqw1QySjr1zJfpJM9+1rdDwSPLMOPOjKuiXjoU/pUUeG9RwmhY3BhZFkNngAAAAAAAAAAAAAAAAAAAAAAAAAAAAAAAAAAAAAAAAAAAAAAAAAAAAAAAAAAAAAAAAAAAAAAAAAAAAAAAAAAAAAAAAAAAAAAAAAAAAAAAAAAAAAAAAAAAAAAAAAAAAAAAAAAAAAAAAAAAAAAAAAAAAAAAAAAAAAAAAAAAAAAAAAAAAAAAAAAAAAAAAAAAAAAAAAAAAAAAAAAAAAAAAAAAAAAAAAAAAAAAAAAAAAAAAAAAAAAAAAAAAAAAAAAAAAAAAAAAAAAAAAAAAAAAAAAAAAAAAAAAAAAAAAAAAAAAAAAAAAAAAAAAAAAAAAAAAAAAAAAAAAAAAAAAAAAAAAAAAAAAAAAAAAAAAAAAAAAAAAAAAAAAAAAAAAAAAAAAAAAAAAAAAAAAAAAAAAAAAAAAAAAAAAAAAAAAAAAAAAAAAAAAAAAAAAAAAAAAAAAAAAAAAAAAAAAAAAAAAAAAAAAAAAAAAAAAAAAAAAAAAAAAAAAAAAAAAAAAAAAAAAAAAAAAAAAAAAAAAAAAAAAAAAAAAAAAAAAAAAAAAAAAAAAAAAAAAAAAAAAAAAAAAAAAAAAAAAAAAAAAAAAAAAAAAAAAAAAAAAAAAAAAAAAAAAAAAAAAAAAAAAAAAAAAAAAAAAAAAAAAAAAAAAAAAAAAAAAAAAAAAAAAAAAAAAAAAAAAAAAAAAAAAAAAAAAAAAAAAAAAAAAAAAAAAAAAAAAAAAAAAAAAAAAAAAAAAAAAAAAAAAAAAAAAAAAAAAAAAAAAAAAAAAAAAAAAAAAAAAAAAAAAAAAAAAAAAAAAAAAAAAAAAAAAAAAAAAAAAAAAAAAAAAAAAAAAAAAAAAAAAAAAAAAAAAAAAAAAAAAAAAAAAAAAAAAAAAAAAAAAAAAAAAAAAAAAAAAAAAAAAAAAAAAAAAAAAAAAAAAAAAAAAAAAAAAAAAAAAAAAAAAAAAAAAAAAAAAAAAAAAAAAAAAAAAAAAAAAAAAAAAAAAAAAAAAAAAAAAAAAAAAAAAAAAAAAAAAAAAAAAAAAAAAAAAAAAAAAAAAAAAAAAAAAAAAAAAAAAAAAAAAAAAAAAAAAAAAAAAAAAAAAAAAAAAAAAAAAAAAAAAAAAAAAAAAAAAAAAAAAAAAAAAAAAAAAAAAAAAAAAAAAAAAAAAAAAAAAAAAAAAAAAAAAAAAAAAAAAAAAAAAAAAAAAAAAAAAAAAAAAAAAAAAAAAAAAAAAAAAAAAAAAAAAAAAAAAAAAAAAAAAAAAAAAAAAAAAAAAAAAAAAAAAAAAAAAAAAAAAAAAAAAAAAAAAAAAAAAAAAAAAAAAAAAAAAAAAAAAAAAAAAAAAAAAAAAAAAAAAAAAAAAAAAAAAAAAAAAAAAAAAAAAAAAAAAAAAAAAAAAAAAAAAAAAAAAAAAAAAAAAAAAAAAAAAAAAAAAAAAAAAAAAAAAAAAAAAAAAAAAAAAAAAAAAAAAAAAAAAAAAAAAAAAAAAAAAAAAAAAAAAAAAAAAAAAAAAAAAAAAAAAAAAAAAAAAAAAAAAAAAAAAAAAAAAAAAAAAAAAAAAAAAAAAAAAAAAAAAAAAAAAAAAAAAAAAAAAAAAAAAAAAAAAAAAAAAAAAAAAAAAAAAAAAAAAAAAAAAAAAAAAAAAAAAAAAAAAAAAAAAAAAAAAAAAAAAAAAAAAAAAAAAAAAAAAAAAAAAAAAAAAAAAAAAAAAAAAAAAAAAAAAAAAAAAAAAAAAAAAAAAAAAAAAAAAAAAAAAAAAAAAAAAAAAAAAAAAAAAAAAAAAAAAAAAAAAAAAAAAAAAAAAAAAAAAAAAAAAAAAAAAAAAAAAAAAAAAAAAAAAAAAAAAAAAAAAAAAAAAAAAAAAAAAAAAAAAAAAAAAAAAAAAAAAAAAAAAAAAAAAAAAAAAAAAAAAAAAAAAAAAAAAAAAAAAAAAAAAAAAAAAAAAAAAAAAAAAAAAAAAAAAAAAAAAAAAAAAAAAAAAAAAAAAAAAAAAAAAAAAAAAAAAAAAAAAAAAAAAAAAAAAAAAAAAAAAAAAAAAAAAAAAAAAAAAAAAAAAAAAAAAAAAAAAAAAAAAAAAAAAAAAAAAAAAAAAAAAAAAAAAAAAAAAAAAAAAAAAAAAAAAAAAAAAAAAAAAAAAAAAAAAAAAAAAAAAAAAAAAAAAAAAAAAAAAAAAAAAAAAAAAAAAAAAAAAAAAAAAAAAAAAAAAAAAAAAAAAAAAAAAAAAAAAAAAAAAAAAAAAAAAAAAAAAAAAAAAAAAAAAAAAAAAAAAAAAAAAAAAAAAAAAAAAAAAAAAAAAAAAAAAAAAAAAAAAAAAAAAAAAAAAAAAAAAAAAAAAAAAAAAAAAAAAAAAAAAAAAAAAAAAAAAAAAAAAAAAAAAAAAAAAAAAAAAAAAAAAAAAAAAAAAAAAAAAAAAAAAAAAAAAAAAAAAAAAAAAAAAAAAAAAAAAAAAAAAAAAAAAAAAAAAAAAAAAAAAAAAAAAAAAAAAAAAAAAAAAAAAAAAAAAAAAAAAAAAAAAAAAAAAAAAAAAAAAAAAAAAAAAAAAAAAAAAAAAAAAAAAAAAAAAAAAAAAAAAAAAAAAAAAAAAAAAAAAAAAAAAAAAAAAAAAAAAAAAAAAAAAAAAAAAAAAAAAAAAAAAAAAAAAAAAAAAAAAAAAAAAAAAAAAAAAAAAAAAAAAAAAAAAAAAAAAAAAAAAAAAAAAAAAAAAAAAAAAAAAAAAAAAAAAAAAAAAAAAAAAAAAAAAAAAAAAAAAAAAAAAAAAAAAAAAAAAAAAAAAAAAAAAAAAAAAAAAAAAAAAAAAAAAAAAAAAAAAAAAAAAAAAAAAAAAAAAAAAAAAAAAAAAAAAAAAAAAAAAAAAAAAAAAAAAAAAAAAAAAAAAAAAAAAAAAAAAAAAAAAAAAAAAAAAAAAAAAAAAAAAAAAAAAAAAAAAAAAAAAAAAAAAAAAAAAAAAAAAAAAAAAAAAAAAAAAAAAAAAAAAAAAAAAAAAAAAAAAAAAAAAAAAAAAAAAAAAAAAAAAAAAAAAAAAAAAAAAAAAAAAAAAAAAAAAAAAAAAAAAAAAAAAAAAAAAAAAAAAAAAAAAAAAAAAAAAAAAAAAAAAAAAAAAAAAAAAAAAAAAAAAAAAAAAAAAAAAAAAAAAAAAAAAAAAAAAAAAAAAAAAAAAAAAAAAAAAAAAAAAAAAAAAAAAAAAAAAAAAAAAAAAAAAAAAAAAAAAAAAAAAAAAAAAAAAAAAAAAAAAAAAAAAAAAAAAAAAAAAAAAAAAAAAAAAAAAAAAAAAAAAAAAAAAAAAAAAAAAAAAAAAAAAAAAAAAAAAAAAAAAAAAAAAAAAAAAAAAAAAAAAAAAAAAAAAAAAAAAAAAAAAAAAAAAAAAAAAAAAAAAAAAAAAAAAAAAAAAAAAAAAAAAAAAAAAAAAAAAAAAAAAAAAAAAAAAAAAAAAAAAAAAAAAAAAAAAAAAAAAAAAAAAAAAAAAAAAAAAAAAAAAAAAAAAAAAAAAAAAAAAAAAAAAAAAAAAAAAAAAAAAAAAAAAAAAAAAAAAAAAAAAAAAAAAAAAAAAAAAAAAAAAAAAAAAAAAAAAAAAAAAAAAAAAAAAAAAAAAAAAAAAAAAAAAAAAAAAAAAAAAAAAAAAAAAAAAAAAAAAAAAAAAAAAAAAAAAAAAAAAAAAAAAAAAAAAAAAAAAAAAAAAAAAAAAAAAAAAAAAAAAAAAAAAAAAAAAAAAAAAAAAAAAAAAAAAAAAAAAAAAAAAAAAAAAAAAAAAAAAAAAAAAAAAAAAAAAAAAAAAAAAAAAAAAAAAAAAAAAAAAAAAAAAAAAAAAAAAAAAAAAAAAAAAAAAAAAAAAAAAAAAAAAAAAAAAAAAAAAAAAAAAAAAAAAAAAAAAAAAAAAAAAAAAAAAAAAAAAAAAAAAAAAAAAAAAAAAAAAAAAAAAAAAAAAAAAAAAAAAAAAAAAAAAAAAAAAAAAAAAAAAAAAAAAAAAAAAAAAAAAAAAAAAAAAAAAAAAAAAAAAAAAAAAAAAAAAAAAAAAAAAAAAAAAAAAAAAAAAAAAAAAAAAAAAAAAAAAAAAAAAAAAAAAAAAAAAAAAAAAAAAAAAAAAAAAAAAAAAAAAAAAAAAAAAAAAAAAAAAAAAAAAAAAAAAAAAAAAAAAAAAAAAAAAAAAAAAAAAAAAAAAAAAAAAAAAAAAAAAAAAAAAAAAAAAAAAAAAAAAAAAAAAAAAAAAAAAAAAAAAAAAAAAAAAAAAAAAAAAAAAAAAAAAAAAAAAAAAAAAAAAAAAAAAAAAAAAAAAAAAAAAAAAAAAAAAAAAAAAAAAAAAAAAAAAAAAAAAAAAAAAAAAAAAAAAAAAAAAAAAAAAAAAAAAAAAAAAAAAAAAAAAAAAAAAAAAAAAAAAAAAAAAAAAAAAAAAAAAAAAAAAAAAAAAAAAAAAAAAAAAAAAAAAAAAAAAAAAAAAAAAAAAAAAAAAAAAAAAAAAAAAAAAAAAAAAAAAAAAAAAAAAAAAAAAAAAAAAAAAAAAAAAAAAAAAAAAAAAAAAAAAAAAAAAAAAAAAAAAAAAAAAAAAAAAAAAAAAAAAAAAAAAAAAAAAAAAAAAAAAAAAAAAAAAAAAAAAAAAAAAAAAAAAAAAAAAAAAAAAAAAAAAAAAAAAAAAAAAAAAAAAAAAAAAAAAAAAAAAAAAAAAAAAAAPZYQPEpEvLtqBD+EfPsPuxGSTRsD7vJImVh0bakFKauTKfloIFx3vWSCNfzJpU3/PSRSSzRDUukWyuvKpJe5UPAPH8=</c2pa:manifest></metadata><g transform="translate(79 73) rotate(-7) scale(1.69) translate(-32 -32)" stroke="#B9A584" stroke-width="1.36"><path d="M12 52C10 26 28 10 54 10c0 26-16 44-42 42Z"/><path d="M12 52L40 24"/></g><g transform="translate(233 64) rotate(3) scale(1.54) translate(-32 -32)" stroke="#A7B79A" stroke-width="1.50"><path d="M14 10v20a18 18 0 0 0 36 0V10H40v20a8 8 0 0 1-16 0V10Z"/><path d="M14 18h10M40 18h10"/></g><g transform="translate(391 85) rotate(-8) scale(1.80) translate(-32 -32)" stroke="#9FB4C4" stroke-width="1.28"><path d="M12 52l4-14 30-30 10 10-30 30Z"/><path d="M42 12l10 10M16 38l10 10"/></g><text x="509" y="72" transform="rotate(9 509 72)" fill="none" stroke="#C7A08C" stroke-width="1.3" font-family="Comic Sans MS, Segoe Print, cursive" font-size="39" font-weight="700" text-anchor="middle">½</text><g transform="translate(675 56) rotate(6) scale(1.68) translate(-32 -32)" stroke="#C7A08C" stroke-width="1.38"><path d="M20 26c-6-4-6-12 0-14 0-6 8-8 12-4 4-4 12-2 12 4 6 2 6 10 0 14"/><path d="M22 26c0 12 4 20 10 20s10-8 10-20"/><path d="M26 36c2 2 4 2 6 0 2 2 4 2 6 0"/><circle cx="28" cy="29" r="1.2"/><circle cx="36" cy="29" r="1.2"/><path d="M20 58c2-6 6-10 12-10s10 4 12 10"/></g><g transform="translate(828 91) rotate(-7) scale(1.64) translate(-32 -32)" stroke="#B5A2BE" stroke-width="1.41"><path d="M8 40h48l-8 12H16Z"/><path d="M32 40V8l16 26H32"/><path d="M32 14L18 34h14"/></g><g transform="translate(154 228) rotate(-2) scale(1.72) translate(-32 -32)" stroke="#B9A584" stroke-width="1.34"><path d="M10 52c2-10 8-14 16-14l4-14c2-8 8-12 16-10 6 2 10 6 10 10l-8 2-2 6-6 2v12c0 6-2 10-6 10H26c-6 0-12-2-16-4Z"/><path d="M24 58v4M34 58v4"/><circle cx="46" cy="18" r="1.4"/><path d="M38 34l6 2"/></g><text x="319" y="224" transform="rotate(6 319 224)" fill="none" stroke="#A7B79A" stroke-width="1.3" font-family="Comic Sans MS, Segoe Print, cursive" font-size="38" font-weight="700" text-anchor="middle">7+5</text><g transform="translate(458 231) rotate(18) scale(1.71) translate(-32 -32)" stroke="#A7B79A" stroke-width="1.35"><path d="M32 6L18 26h8L14 42h12v14h12V42h12L38 26h8Z"/></g><g transform="translate(591 220) rotate(6) scale(1.25) translate(-32 -32)" stroke="#9FB4C4" stroke-width="1.85"><path d="M32 18c-14-6-22 6-20 18 2 12 10 22 20 18 10 4 18-6 20-18 2-12-6-24-20-18Z"/><path d="M32 18c0-6 2-10 6-12"/><path d="M34 12c6-4 10-2 12 0-4 4-8 4-12 0Z"/></g><g transform="translate(748 211) rotate(-14) scale(1.27) translate(-32 -32)" stroke="#C7A08C" stroke-width="1.82"><path d="M10 34c8-2 14 2 18 8 6-10 16-16 28-14-6 4-8 8-10 14-4 10-16 14-26 8"/><path d="M28 42c-2 4-6 6-10 6"/><circle cx="46" cy="28" r="1"/></g><text x="11" y="209" transform="rotate(-9 11 209)" fill="none" stroke="#B5A2BE" stroke-width="1.3" font-family="Comic Sans MS, Segoe Print, cursive" font-size="42" font-weight="700" text-anchor="middle">Fe</text><g transform="translate(91 357) rotate(-2) scale(1.55) translate(-32 -32)" stroke="#B5A2BE" stroke-width="1.49"><path d="M32 4c10 8 12 22 8 34H24c-4-12-2-26 8-34Z"/><circle cx="32" cy="20" r="4"/><path d="M24 38l-8 8 2-12M40 38l8 8-2-12M28 44l4 12 4-12"/></g><g transform="translate(241 388) rotate(13) scale(1.39) translate(-32 -32)" stroke="#B9A584" stroke-width="1.66"><path d="M6 30L58 8 44 56 30 38Z"/><path d="M30 38L58 8M30 38v14l6-8"/></g><g transform="translate(371 369) rotate(14) scale(1.79) translate(-32 -32)" stroke="#A7B79A" stroke-width="1.29"><path d="M32 6v6M32 12L18 54M32 12l14 42"/><circle cx="32" cy="14" r="3"/><path d="M22 40h20"/></g><text x="510" y="361" transform="rotate(-10 510 361)" fill="none" stroke="#9FB4C4" stroke-width="1.3" font-family="Comic Sans MS, Segoe Print, cursive" font-size="40" font-weight="700" text-anchor="middle">√9</text><g transform="translate(674 379) rotate(-9) scale(1.23) translate(-32 -32)" stroke="#9FB4C4" stroke-width="1.87"><circle cx="32" cy="28" r="20"/><path d="M12 28h40M32 8c-8 10-8 30 0 40M32 8c8 10 8 30 0 40"/><path d="M32 48v8M22 58h20"/></g><g transform="translate(822 370) rotate(2) scale(1.79) translate(-32 -32)" stroke="#C7A08C" stroke-width="1.29"><path d="M24 6h16M27 6v16L12 50a6 6 0 0 0 5 8h30a6 6 0 0 0 5-8L37 22V6"/><path d="M17 42h30"/><circle cx="28" cy="49" r="2"/><circle cx="36" cy="46" r="1.6"/></g><g transform="translate(158 526) rotate(4) scale(1.62) translate(-32 -32)" stroke="#B5A2BE" stroke-width="1.42"><path d="M32 8l7 15 16 2-12 11 3 16-14-8-14 8 3-16L9 25l16-2Z"/></g><text x="281" y="542" transform="rotate(10 281 542)" fill="none" stroke="#B9A584" stroke-width="1.3" font-family="Comic Sans MS, Segoe Print, cursive" font-size="48" font-weight="700" text-anchor="middle">CO₂</text><g transform="translate(463 520) rotate(-4) scale(1.29) translate(-32 -32)" stroke="#B9A584" stroke-width="1.79"><path d="M44 8l12 12M50 14L30 34"/><path d="M30 34c4 6 0 12-6 12 0 6-6 10-12 6s-6-12 0-16c4-6 10-8 14-6 0-2 2-2 4 4Z"/><circle cx="24" cy="40" r="3"/></g><g transform="translate(606 507) rotate(-16) scale(1.35) translate(-32 -32)" stroke="#A7B79A" stroke-width="1.71"><path d="M32 18v30"/><path d="M32 24c-6-12-22-14-22-2 0 8 10 10 22 6M32 24c6-12 22-14 22-2 0 8-10 10-22 6"/><path d="M32 30c-4 10-16 14-16 6M32 30c4 10 16 14 16 6"/><path d="M32 18l-4-6M32 18l4-6"/></g><g transform="translate(736 518) rotate(-16) scale(1.23) translate(-32 -32)" stroke="#9FB4C4" stroke-width="1.87"><path d="M32 16c-8-6-18-6-24-4v38c6-2 16-2 24 4 8-6 18-6 24-4V12c-6-2-16-2-24 4Z"/><path d="M32 16v38"/></g><text x="885" y="508" transform="rotate(-5 885 508)" fill="none" stroke="#C7A08C" stroke-width="1.3" font-family="Comic Sans MS, Segoe Print, cursive" font-size="38" font-weight="700" text-anchor="middle">H₂O</text><g transform="translate(91 680) rotate(-13) scale(1.38) translate(-32 -32)" stroke="#C7A08C" stroke-width="1.68"><circle cx="32" cy="32" r="22"/><path d="M32 22l9 7-3 11H26l-3-11Z"/><path d="M32 22V10M41 29l11-4M38 40l7 9M26 40l-7 9M23 29l-11-4"/></g><g transform="translate(219 669) rotate(-14) scale(1.72) translate(-32 -32)" stroke="#B5A2BE" stroke-width="1.34"><ellipse cx="32" cy="22" rx="20" ry="7"/><path d="M12 22v20c0 4 9 7 20 7s20-3 20-7V22"/><path d="M12 30l10 12 10-12 10 12 10-12"/><path d="M40 6l-6 14M48 8l-10 12"/></g><g transform="translate(396 674) rotate(-1) scale(1.28) translate(-32 -32)" stroke="#B9A584" stroke-width="1.80"><path d="M16 46a10 10 0 0 1 2-20 14 14 0 0 1 26-4 11 11 0 0 1 4 24Z"/></g><text x="508" y="668" transform="rotate(-8 508 668)" fill="none" stroke="#A7B79A" stroke-width="1.3" font-family="Comic Sans MS, Segoe Print, cursive" font-size="47" font-weight="700" text-anchor="middle">π</text><g transform="translate(661 655) rotate(16) scale(1.54) translate(-32 -32)" stroke="#A7B79A" stroke-width="1.50"><path d="M32 8C16 8 6 20 8 34c2 12 14 20 24 20 6 0 6-6 2-8-4-3 0-8 6-8 8 0 16-2 16-12C56 16 46 8 32 8Z"/><circle cx="20" cy="26" r="3"/><circle cx="30" cy="18" r="3"/><circle cx="42" cy="20" r="3"/></g><g transform="translate(810 677) rotate(-17) scale(1.54) translate(-32 -32)" stroke="#9FB4C4" stroke-width="1.50"><circle cx="32" cy="32" r="22"/><path d="M32 16v16l10 6"/><path d="M32 12v2M32 50v2M12 32h2M50 32h2"/></g><g transform="translate(170 840) rotate(7) scale(1.38) translate(-32 -32)" stroke="#C7A08C" stroke-width="1.67"><circle cx="32" cy="32" r="11"/><path d="M32 6v8M32 50v8M6 32h8M50 32h8M13 13l6 6M45 45l6 6M13 51l6-6M45 19l6-6"/></g><text x="294" y="811" transform="rotate(10 294 811)" fill="none" stroke="#B5A2BE" stroke-width="1.3" font-family="Comic Sans MS, Segoe Print, cursive" font-size="44" font-weight="700" text-anchor="middle">Na</text><g transform="translate(462 818) rotate(-10) scale(1.70) translate(-32 -32)" stroke="#B5A2BE" stroke-width="1.36"><path d="M10 54V10l44 44Z"/><path d="M10 46h8v8"/></g><g transform="translate(620 840) rotate(11) scale(1.71) translate(-32 -32)" stroke="#B9A584" stroke-width="1.35"><path d="M32 6l16 14-16 38-16-38Z"/><path d="M16 20h32M24 20l8 38 8-38"/></g><g transform="translate(760 814) rotate(1) scale(1.44) translate(-32 -32)" stroke="#A7B79A" stroke-width="1.61"><path d="M24 40c-6-4-10-10-10-17a18 18 0 0 1 36 0c0 7-4 13-10 17v6H24Z"/><path d="M24 50h16M27 56h10"/><path d="M28 30l4 6 4-6"/></g><text x="880" y="805" transform="rotate(-8 880 805)" fill="none" stroke="#9FB4C4" stroke-width="1.3" font-family="Comic Sans MS, Segoe Print, cursive" font-size="41" font-weight="700" text-anchor="middle">Ø</text></svg>