<svg xmlns="http://www.w3.org/2000/svg" viewBox="0 0 1440 90" preserveAspectRatio="none" xmlns:c2pa="http://c2pa.org/manifest"><metadata><c2pa:manifest>AAAWgmp1bWIAAAAeanVtZGMycGEAEQAQgAAAqgA4m3EDYzJwYQAAABZcanVtYgAAAEdqdW1kYzJtYQARABCAAACqADibcQN1cm46YzJwYTpiYzJhMGI0Ni1kMGIwLTRkY2EtYmJhMC04YjliNjk3MGViNjIAAAADl2p1bWIAAAApanVtZGMyYXMAEQAQgAAAqgA4m3EDYzJwYS5hc3NlcnRpb25zAAAAALxqdW1iAAAARGp1bWRjYm9yABEAEIAAAKoAOJtxE2MycGEuaW5ncmVkaWVudC52MwAAAAAYYzJzaNugsjnhGxVAnmsoV03CDIYAAABwY2JvcqNpZGM6Zm9ybWF0bWltYWdlL3N2Zyt4bWxqaW5zdGFuY2VJRHgseG1wOmlpZDplZDc0MmQxNy1lMWYwLTRhY2EtYTI3Yy0zZjgxOTE2M2Y3MzhscmVsYXRpb25zaGlwaHBhcmVudE9mAAAB4mp1bWIAAABBanVtZGNib3IAEQAQgAAAqgA4m3ETYzJwYS5hY3Rpb25zLnYyAAAAABhjMnNoxSB+xK9J06w5qmyNlU8AYwAAAZljYm9yomdhY3Rpb25zgqJmYWN0aW9ua2MycGEub3BlbmVkanBhcmFtZXRlcnOha2luZ3JlZGllbnRzgaJjdXJseC1zZWxmI2p1bWJmPWMycGEuYXNzZXJ0aW9ucy9jMnBhLmluZ3JlZGllbnQudjNkaGFzaFggR8MmclMP+Ifwzxten492ZC2ZTW+mh7iw/6Q1G2aHU0GkZmFjdGlvbngdY29tLmFudGhyb3BpYy5jbGF1ZGUucHJvdmlkZWRqcGFyYW1ldGVyc6F4H2NvbS5hbnRocm9waWMub3JpZ2luLWNvbmZpZGVuY2VndW5rbm93bmtkZXNjcmlwdGlvbnhmQ2xhdWRlIHByb3ZpZGVkIHRoaXMgZmlsZSBhdCB0aGUgcmVxdWVzdCBvZiBhIHVzZXIgYW5kIG1heSBoYXZlIGNyZWF0ZWQgb3IgbW9kaWZpZWQgdGhlIGZpbGUgY29udGVudHMubXNvZnR3YXJlQWdlbnShZG5hbWVmQ2xhdWRlcmFsbEFjdGlvbnNJbmNsdWRlZPUAAADIanVtYgAAAEBqdW1kY2JvcgARABCAAACqADibcRNjMnBhLmhhc2guZGF0YQAAAAAYYzJzaKfA10536qU5k+iaX8j0pO8AAACAY2JvcqVjYWxnZnNoYTI1NmNwYWRNAAAAAAAAAAAAAAAAAGRoYXNoWCCyVxvoqFUyvpzTqgcB3yDSg9LpZHBZZoroboTpi6n+bWRuYW1lbmp1bWJmIG1hbmlmZXN0amV4Y2x1c2lvbnOBomVzdGFydBiYZmxlbmd0aBkeBAAAAj5qdW1iAAAAJ2p1bWRjMmNsABEAEIAAAKoAOJtxA2MycGEuY2xhaW0udjIAAAACD2Nib3KlY2FsZ2ZzaGEyNTZpc2lnbmF0dXJleE1zZWxmI2p1bWJmPS9jMnBhL3VybjpjMnBhOmJjMmEwYjQ2LWQwYjAtNGRjYS1iYmEwLThiOWI2OTcwZWI2Mi9jMnBhLnNpZ25hdHVyZWppbnN0YW5jZUlEeCx4bXA6aWlkOjk2YTRjZWE2LTBlZDUtNDA3YS1iNzk5LTIyZTg5NTk2NjQ5NnJjcmVhdGVkX2Fzc2VydGlvbnODomN1cmx4LXNlbGYjanVtYmY9YzJwYS5hc3NlcnRpb25zL2MycGEuaW5ncmVkaWVudC52M2RoYXNoWCBHwyZyUw/4h/DPG16fj3ZkLZlNb6aHuLD/pDUbZodTQaJjdXJseCpzZWxmI2p1bWJmPWMycGEuYXNzZXJ0aW9ucy9jMnBhLmFjdGlvbnMudjJkaGFzaFgg7ICl/yAzjVdMCMjW4ylkIVsK15dpA7EBcEHEaITo5F6iY3VybHgpc2VsZiNqdW1iZj1jMnBhLmFzc2VydGlvbnMvYzJwYS5oYXNoLmRhdGFkaGFzaFgg7HihOx3J/hoTv3nLBikah1t38s2B8dOBbnMy/Qnt+nl0Y2xhaW1fZ2VuZXJhdG9yX2luZm+jZG5hbWVvQW50aHJvcGljIEZpbGVzZ3ZlcnNpb25lMS4wLjBrc3BlY1ZlcnNpb25lMi40LjAAABA4anVtYgAAAChqdW1kYzJjcwARABCAAACqADibcQNjMnBhLnNpZ25hdHVyZQAAABAIY2JvctKEWQISogEmGCFZAgowggIGMIIBjaADAgECAhRA5aAK7sI50L64g/oGQgU9Z1UTADAKBggqhkjOPQQDAzBJMRcwFQYDVQQKEw5BbnRocm9waWMsIFBCQzEuMCwGA1UEAxMlQW50aHJvcGljIENvbnRlbnQgQ3JlZGVudGlhbHMgUm9vdCBDQTAeFw0yNjA4MDcxODQzNTZaFw0yODA4MDYxOTQzNTZaMEQxFzAVBgNVBAoTDkFudGhyb3BpYywgUEJDMSkwJwYDVQQDEyBBbnRocm9waWMgQ2xhdWRlIENvbnRlbnQgU2lnbmluZzBZMBMGByqGSM49AgEGCCqGSM49AwEHA0IABJh6CmvLUBgFFNU0vUKlOVtE6djd17L5SuwX0LemFisBM3dkd/3cyjxFA3Qo5S46fX0/ihY0VZ7mfb9KF703t5OjWDBWMA4GA1UdDwEB/wQEAwIHgDAVBgNVHSUEDjAMBgorBgEEAYPoXgIBMAwGA1UdEwEB/wQCMAAwHwYDVR0jBBgwFoAUzlHiBIFOZFsj+OPEz5o+nMHXXMIwCgYIKoZIzj0EAwMDZwAwZAIwMXMdFJ4BetLLVY7ORuE9noqbbAZOZn/aArXyTwFAZfKrPzxF2vPoJNf1+UCdg1XGAjBwX1zd9WGqYkqmL5SFqw1QySjr1zJfpJM9+1rdDwSPLMOPOjKuiXjoU/pUUeG9RwmhY3BhZFkNngAAAAAAAAAAAAAAAAAAAAAAAAAAAAAAAAAAAAAAAAAAAAAAAAAAAAAAAAAAAAAAAAAAAAAAAAAAAAAAAAAAAAAAAAAAAAAAAAAAAAAAAAAAAAAAAAAAAAAAAAAAAAAAAAAAAAAAAAAAAAAAAAAAAAAAAAAAAAAAAAAAAAAAAAAAAAAAAAAAAAAAAAAAAAAAAAAAAAAAAAAAAAAAAAAAAAAAAAAAAAAAAAAAAAAAAAAAAAAAAAAAAAAAAAAAAAAAAAAAAAAAAAAAAAAAAAAAAAAAAAAAAAAAAAAAAAAAAAAAAAAAAAAAAAAAAAAAAAAAAAAAAAAAAAAAAAAAAAAAAAAAAAAAAAAAAAAAAAAAAAAAAAAAAAAAAAAAAAAAAAAAAAAAAAAAAAAAAAAAAAAAAAAAAAAAAAAAAAAAAAAAAAAAAAAAAAAAAAAAAAAAAAAAAAAAAAAAAAAAAAAAAAAAAAAAAAAAAAAAAAAAAAAAAAAAAAAAAAAAAAAAAAAAAAAAAAAAAAAAAAAAAAAAAAAAAAAAAAAAAAAAAAAAAAAAAAAAAAAAAAAAAAAAAAAAAAAAAAAAAAAAAAAAAAAAAAAAAAAAAAAAAAAAAAAAAAAAAAAAAAAAAAAAAAAAAAAAAAAAAAAAAAAAAAAAAAAAAAAAAAAAAAAAAAAAAAAAAAAAAAAAAAAAAAAAAAAAAAAAAAAAAAAAAAAAAAAAAAAAAAAAAAAAAAAAAAAAAAAAAAAAAAAAAAAAAAAAAAAAAAAAAAAAAAAAAAAAAAAAAAAAAAAAAAAAAAAAAAAAAAAAAAAAAAAAAAAAAAAAAAAAAAAAAAAAAAAAAAAAAAAAAAAAAAAAAAAAAAAAAAAAAAAAAAAAAAAAAAAAAAAAAAAAAAAAAAAAAAAAAAAAAAAAAAAAAAAAAAAAAAAAAAAAAAAAAAAAAAAAAAAAAAAAAAAAAAAAAAAAAAAAAAAAAAAAAAAAAAAAAAAAAAAAAAAAAAAAAAAAAAAAAAAAAAAAAAAAAAAAAAAAAAAAAAAAAAAAAAAAAAAAAAAAAAAAAAAAAAAAAAAAAAAAAAAAAAAAAAAAAAAAAAAAAAAAAAAAAAAAAAAAAAAAAAAAAAAAAAAAAAAAAAAAAAAAAAAAAAAAAAAAAAAAAAAAAAAAAAAAAAAAAAAAAAAAAAAAAAAAAAAAAAAAAAAAAAAAAAAAAAAAAAAAAAAAAAAAAAAAAAAAAAAAAAAAAAAAAAAAAAAAAAAAAAAAAAAAAAAAAAAAAAAAAAAAAAAAAAAAAAAAAAAAAAAAAAAAAAAAAAAAAAAAAAAAAAAAAAAAAAAAAAAAAAAAAAAAAAAAAAAAAAAAAAAAAAAAAAAAAAAAAAAAAAAAAAAAAAAAAAAAAAAAAAAAAAAAAAAAAAAAAAAAAAAAAAAAAAAAAAAAAAAAAAAAAAAAAAAAAAAAAAAAAAAAAAAAAAAAAAAAAAAAAAAAAAAAAAAAAAAAAAAAAAAAAAAAAAAAAAAAAAAAAAAAAAAAAAAAAAAAAAAAAAAAAAAAAAAAAAAAAAAAAAAAAAAAAAAAAAAAAAAAAAAAAAAAAAAAAAAAAAAAAAAAAAAAAAAAAAAAAAAAAAAAAAAAAAAAAAAAAAAAAAAAAAAAAAAAAAAAAAAAAAAAAAAAAAAAAAAAAAAAAAAAAAAAAAAAAAAAAAAAAAAAAAAAAAAAAAAAAAAAAAAAAAAAAAAAAAAAAAAAAAAAAAAAAAAAAAAAAAAAAAAAAAAAAAAAAAAAAAAAAAAAAAAAAAAAAAAAAAAAAAAAAAAAAAAAAAAAAAAAAAAAAAAAAAAAAAAAAAAAAAAAAAAAAAAAAAAAAAAAAAAAAAAAAAAAAAAAAAAAAAAAAAAAAAAAAAAAAAAAAAAAAAAAAAAAAAAAAAAAAAAAAAAAAAAAAAAAAAAAAAAAAAAAAAAAAAAAAAAAAAAAAAAAAAAAAAAAAAAAAAAAAAAAAAAAAAAAAAAAAAAAAAAAAAAAAAAAAAAAAAAAAAAAAAAAAAAAAAAAAAAAAAAAAAAAAAAAAAAAAAAAAAAAAAAAAAAAAAAAAAAAAAAAAAAAAAAAAAAAAAAAAAAAAAAAAAAAAAAAAAAAAAAAAAAAAAAAAAAAAAAAAAAAAAAAAAAAAAAAAAAAAAAAAAAAAAAAAAAAAAAAAAAAAAAAAAAAAAAAAAAAAAAAAAAAAAAAAAAAAAAAAAAAAAAAAAAAAAAAAAAAAAAAAAAAAAAAAAAAAAAAAAAAAAAAAAAAAAAAAAAAAAAAAAAAAAAAAAAAAAAAAAAAAAAAAAAAAAAAAAAAAAAAAAAAAAAAAAAAAAAAAAAAAAAAAAAAAAAAAAAAAAAAAAAAAAAAAAAAAAAAAAAAAAAAAAAAAAAAAAAAAAAAAAAAAAAAAAAAAAAAAAAAAAAAAAAAAAAAAAAAAAAAAAAAAAAAAAAAAAAAAAAAAAAAAAAAAAAAAAAAAAAAAAAAAAAAAAAAAAAAAAAAAAAAAAAAAAAAAAAAAAAAAAAAAAAAAAAAAAAAAAAAAAAAAAAAAAAAAAAAAAAAAAAAAAAAAAAAAAAAAAAAAAAAAAAAAAAAAAAAAAAAAAAAAAAAAAAAAAAAAAAAAAAAAAAAAAAAAAAAAAAAAAAAAAAAAAAAAAAAAAAAAAAAAAAAAAAAAAAAAAAAAAAAAAAAAAAAAAAAAAAAAAAAAAAAAAAAAAAAAAAAAAAAAAAAAAAAAAAAAAAAAAAAAAAAAAAAAAAAAAAAAAAAAAAAAAAAAAAAAAAAAAAAAAAAAAAAAAAAAAAAAAAAAAAAAAAAAAAAAAAAAAAAAAAAAAAAAAAAAAAAAAAAAAAAAAAAAAAAAAAAAAAAAAAAAAAAAAAAAAAAAAAAAAAAAAAAAAAAAAAAAAAAAAAAAAAAAAAAAAAAAAAAAAAAAAAAAAAAAAAAAAAAAAAAAAAAAAAAAAAAAAAAAAAAAAAAAAAAAAAAAAAAAAAAAAAAAAAAAAAAAAAAAAAAAAAAAAAAAAAAAAAAAAAAAAAAAAAAAAAAAAAAAAAAAAAAAAAAAAAAAAAAAAAAAAAAAAAAAAAAAAAAAAAAAAAAAAAAAAAAAAAAAAAAAAAAAAAAAAAAAAAAAAAAAAAAAAAAAAAAAAAAAAAAAAAAAAAAAAAAAAAAAAAAAAAAAAAAAAAAAAAAAAAAAAAAAAAAAAAAAAAAAAAAAAAAAAAAAAAAAAAAAAAAAAAAAAAAAAAAAAAAAAAAAAAAAAAAAAAAAAAAAAAAAAAAAAAAAAAAAAAAAAAAAAAAAAAAAAAAAAAAAAAAAAAAAAAAAAAAAAAAAAAAAAAAAAAAAAAAAAAAAAAAAAAAAAAAAAAAAAAAAAAAAAAAAAAAAAAAAAAAAAAAAAAAAAAAAAAAAAAAAAAAAAAAAAAAAAAAAAAAAAAAAAAAAAAAAAAAAAAAAAAAAAAAAAAAAAAAAAAAAAAAAAAAAAAAAAAAAAAAAAAAAAAAAAAAAAAAAAAAAAAAAAAAAAAAAAAAAAAAAAAAAAAAAAAAAAAAAAAAAAAAAAAAAAAAAAAAAAAAAAAAAAAAAAAAAAAAAAAAAAAAAAAAAAAAAAAAAAAAAAAAAAAAAAAAAAAAAAAAAAAAAAAAAAAAAAAAAAAAAAAAAAAAAAAAAAAAAAAAAAAAAAAAAAAAAAAAAAAAAAAAAAAAAAAAAAAAAAAAAAAAAAAAAAAAAAAAAAAAAAAAAAAAAAAAAAAAAAAAAAAAAAAAAAAAAAAAAAAAAAAAAAAAAAAAAAAAAAAAAAAAAAAAAAAAAAAAAAAAAAAAAAAAAAAAAAAAAAAAAAAAAAAAAAAAAAAAAAAAAAAAAAAAAAAAAAAAAAAAAAAAAAAAAAAAAAAAAAAAAAAAAAAAAAAAAAAAAAAAAAAAAAAAAAAAAAAAAAAAAAAAAAAAAAAAAAAAAAAAAAAAAAAAAAAAAAAAAAAAAAAAAAAAAAAAAAAAAAAAAAAAAAAAAAAAAAAAAAAAAAAAAAAAAAAAAAAAAAAAAAAAAAAAAAAAAAAAAAAAAAAAAAAAAAAAAAAAAAAAAAAAAAAAAAAAAAAAAAAAAAAAAAAAAAAAAAAAAAAAAAAAAAAAAAAAAAAAAAAAAAAAAAAAAAAAAAAAAAAAAAAAAAAAAAAAAAAAAAAAAAAAAAAAAAAAAAAAAAAAAAAAAAAAAAAAAAAAAAAAAAAAAAAAAAAAAAAAAAAAAAAAAAAAAAAAAAAAAAAAAAAAAAAAAAAAAAAAAAAAAAAAAAAAAAAAAAAAAAAAAAAAAAAAAAAAAAAAAAAAAAAAAAAAAAAAAAAAAAAAAAAAAAAAAAAAAAAAAAAAAAAAAAAAAAAAAAAAAAAAAAAAAAAAAAAAAAAAAAAAAAAAAAAAAAAAAAAAAAAAAAAAAAAAAAAAAAAAAAAAAAAAAAAAAAAAAAAAAAAAAAAAAAAAAAAAAAAAAAAAAAAAAAAAAAAAAAAAAAAAAAAAAAAAAAAAAAAAAAAAAAAAAAAAAAAAAAAAAAAAAAAAAAAAAAAAAAAAAAAAAAAAAAAAAAAAAAAAAAAAAAAAAAAAAAAAAAAAAAAAAAAAAAAAAAAAAAAAAAAAAAAAAAAAAAAAAAAAAAAAAAAAAAAAAAAAAAAAAAAAAAAAAAAAAPZYQOYg7F6i6sjiE2kexbDtAKCtyw0TFiOJumxxuIfQyl88JO4YOHolXXCj38pi1us4NQwh4IpAaOyiewblBWvMonc=</c2pa:manifest></metadata><path fill="#E9DFCB" d="M0,90 L0,39.3 L8,43.7 L21,46.1 L32,48.7 L39,51.3 L51,53.1 L58,54.0 L69,49.9 L76,38.8 L76,50.4 L81,51.0 L93,54.0 L101,55.3 L109,54.3 L124,53.5 L124,60.4 L138,62.2 L143,62.8 L154,62.0 L167,64.3 L172,58.8 L184,62.4 L191,55.1 L191,66.4 L198,66.8 L205,67.2 L213,64.8 L225,60.0 L234,65.1 L243,61.2 L250,62.5 L259,50.9 L259,58.7 L268,41.3 L268,54.1 L273,45.0 L273,57.0 L283,61.0 L293,64.4 L298,64.2 L304,66.4 L314,60.7 L319,54.5 L334,54.0 L347,54.3 L354,57.1 L366,47.7 L366,55.1 L373,59.0 L378,58.0 L391,59.0 L400,54.1 L413,49.2 L424,38.7 L424,50.5 L429,46.7 L436,42.6 L448,40.3 L458,43.9 L464,42.7 L475,38.5 L485,39.3 L497,32.8 L497,44.4 L507,42.0 L515,37.6 L524,28.1 L524,36.2 L536,39.7 L543,41.5 L554,40.3 L561,37.3 L572,38.9 L579,36.5 L589,37.0 L599,26.9 L599,33.3 L606,24.0 L606,36.9 L615,33.1 L629,43.5 L627,33.0 L635,33.0 L647,33.0 L656,33.0 L667,35.6 L681,34.1 L692,39.0 L704,40.0 L718,36.9 L730,37.9 L737,33.7 L746,39.5 L759,34.2 L773,38.5 L782,34.4 L796,37.7 L806,36.5 L816,40.6 L828,38.2 L842,40.3 L856,37.6 L868,36.9 L881,39.4 L891,34.6 L898,37.1 L904,34.3 L913,33.3 L924,37.8 L930,42.1 L944,36.0 L959,22.1 L959,29.3 L967,29.5 L975,17.4 L975,30.3 L980,27.7 L994,29.3 L1001,30.9 L1007,34.4 L1018,28.5 L1028,28.8 L1037,29.5 L1051,18.7 L1051,30.4 L1059,17.3 L1059,25.6 L1065,19.7 L1079,18.9 L1088,21.3 L1104,32.8 L1102,26.4 L1110,23.7 L1110,29.3 L1119,23.5 L1130,27.3 L1143,29.2 L1152,26.0 L1165,20.4 L1174,18.8 L1182,13.1 L1188,2.0 L1188,9.7 L1195,6.7 L1195,15.5 L1210,15.2 L1223,18.1 L1232,13.7 L1243,10.6 L1255,11.1 L1266,12.0 L1276,12.2 L1281,16.7 L1292,32.5 L1290,21.8 L1304,21.9 L1314,18.3 L1320,21.1 L1328,10.8 L1328,23.4 L1343,24.8 L1350,23.1 L1361,29.6 L1368,33.8 L1377,36.1 L1386,36.7 L1394,33.3 L1401,39.3 L1411,42.1 L1425,41.3 L1435,40.7 L1435,46.0 L1442,52.0 L1440,41.9 L1440,41.9 L1440,90 Z"/><path fill="#FBF5EA" d="M0,90 L2,51.6 L0,41.5 L15,42.5 L21,29.1 L21,40.3 L30,35.3 L41,33.3 L47,24.0 L47,34.3 L62,39.3 L73,36.2 L73,41.6 L87,46.7 L94,45.3 L108,46.8 L118,51.7 L116,43.8 L127,41.1 L135,46.9 L144,47.3 L150,46.1 L156,43.8 L156,51.3 L163,46.0 L163,53.9 L176,48.1 L181,46.8 L189,47.4 L196,51.2 L205,45.4 L216,37.4 L216,44.9 L227,47.4 L237,45.9 L250,49.8 L262,49.7 L270,47.5 L282,47.7 L297,49.0 L302,43.7 L308,39.5 L316,29.4 L316,42.4 L328,44.8 L344,49.1 L342,42.7 L352,47.3 L364,44.2 L371,44.7 L385,43.8 L394,49.4 L406,49.9 L422,61.1 L420,50.7 L431,41.3 L431,51.4 L438,40.1 L440,59.2 L438,50.7 L448,47.7 L455,44.1 L455,49.7 L462,48.7 L473,51.8 L481,52.7 L492,52.6 L502,48.2 L514,48.1 L524,43.8 L530,48.5 L544,45.4 L552,43.6 L558,44.3 L568,48.0 L576,46.4 L587,52.5 L598,43.3 L598,50.0 L611,55.6 L620,53.0 L632,50.7 L632,59.2 L645,56.4 L657,61.4 L664,60.7 L676,57.9 L685,61.6 L696,62.7 L704,49.8 L704,61.5 L711,63.5 L717,68.6 L731,58.1 L731,69.2 L743,72.0 L758,83.7 L756,76.3 L764,76.7 L770,76.6 L784,73.8 L799,75.8 L808,75.4 L824,80.6 L822,72.3 L829,66.7 L840,70.1 L855,66.8 L863,65.1 L869,65.3 L883,70.3 L893,71.2 L908,71.1 L923,70.6 L937,70.2 L950,67.6 L958,68.3 L964,69.8 L977,66.8 L990,68.2 L1003,68.0 L1015,60.4 L1015,67.2 L1022,65.2 L1028,61.4 L1037,60.7 L1050,64.8 L1063,63.0 L1063,69.3 L1071,65.6 L1071,71.8 L1078,72.1 L1089,60.2 L1089,71.7 L1098,66.9 L1111,64.5 L1121,68.8 L1134,64.4 L1147,60.0 L1160,56.6 L1172,49.0 L1172,56.0 L1183,49.8 L1183,56.3 L1189,56.4 L1201,56.6 L1211,62.6 L1227,66.3 L1225,58.8 L1239,56.6 L1246,56.5 L1258,56.2 L1272,55.7 L1278,55.4 L1285,55.0 L1299,54.2 L1305,53.8 L1310,53.4 L1323,52.4 L1330,44.0 L1330,51.9 L1341,55.9 L1349,54.9 L1357,51.8 L1365,55.3 L1377,54.3 L1383,44.9 L1383,55.2 L1397,58.8 L1408,56.2 L1421,59.2 L1431,60.9 L1436,60.3 L1440,60.3 L1440,90 Z"/></svg>